<?xml version="1.0" standalone="no"?>
<!DOCTYPE svg PUBLIC "-//W3C//DTD SVG 20010904//EN"
 "http://www.w3.org/TR/2001/REC-SVG-20010904/DTD/svg10.dtd">
<svg version="1.0" xmlns="http://www.w3.org/2000/svg"
 width="969.000000pt" height="685.000000pt" viewBox="0 0 969.000000 685.000000"
 preserveAspectRatio="xMidYMid meet">

<g transform="translate(0.000000,685.000000) scale(0.100000,-0.100000)"
fill="#574142" stroke="none">
<path d="M4440 6475 c-80 -21 -119 -25 -245 -25 -92 -1 -175 -6 -215 -15 -36
-8 -79 -14 -97 -15 -17 0 -98 -23 -180 -51 -81 -28 -198 -69 -260 -90 -62 -21
-143 -54 -180 -72 -37 -19 -81 -37 -98 -41 -97 -23 -321 -131 -392 -190 -16
-13 -59 -39 -98 -59 -105 -55 -174 -112 -255 -209 -40 -49 -76 -88 -79 -88 -4
0 -63 -55 -132 -122 -108 -107 -175 -188 -266 -321 -12 -18 -32 -45 -46 -62
-13 -16 -30 -41 -37 -55 -7 -14 -23 -38 -36 -53 -34 -40 -112 -187 -136 -254
-11 -32 -26 -98 -33 -148 -7 -49 -23 -133 -34 -185 -12 -52 -25 -122 -31 -155
-5 -32 -25 -100 -44 -150 -57 -153 -96 -288 -96 -335 0 -44 -2 -46 -67 -95
-122 -92 -220 -245 -268 -420 -13 -44 -38 -123 -58 -175 -19 -52 -49 -133 -67
-180 -42 -114 -51 -190 -60 -485 -4 -137 -13 -272 -20 -300 -6 -27 -14 -123
-17 -213 -4 -143 -2 -171 15 -230 12 -37 28 -98 37 -137 41 -178 193 -396 365
-522 193 -142 263 -202 350 -299 90 -102 178 -161 283 -188 37 -10 82 -35 142
-79 49 -36 100 -71 114 -78 14 -7 49 -30 77 -50 27 -20 72 -48 100 -62 63 -32
263 -93 334 -102 30 -4 384 -9 785 -10 402 -2 975 -6 1275 -9 457 -6 570 -5
696 8 84 9 180 16 215 16 40 0 114 13 194 33 72 19 155 40 185 46 30 7 82 27
115 43 33 17 86 38 117 48 64 20 187 97 218 138 32 39 66 59 155 88 44 14 101
39 127 55 l48 29 36 -73 c74 -147 160 -231 308 -301 123 -57 181 -68 351 -63
83 2 215 11 295 20 80 9 183 19 230 23 83 6 303 65 315 85 3 5 36 17 73 28 88
26 233 113 298 176 70 70 122 150 188 295 32 69 75 150 95 180 49 71 113 207
135 290 10 36 35 117 55 180 l36 115 0 240 c0 236 -8 329 -40 470 -35 155 -45
302 -45 676 0 331 -2 371 -19 425 -10 32 -31 113 -46 179 -15 66 -40 162 -56
214 -43 139 -161 428 -233 571 -35 69 -80 168 -100 220 -20 52 -51 127 -71
165 -19 39 -44 95 -55 125 -38 105 -169 285 -279 385 -145 131 -182 160 -270
212 -53 31 -123 77 -156 103 -76 59 -230 142 -320 173 -105 37 -175 68 -267
122 -137 79 -153 91 -256 188 -90 85 -215 178 -298 220 -17 9 -87 34 -155 56
-68 21 -169 54 -224 71 -91 29 -121 34 -325 46 -220 14 -996 33 -1335 33 -148
0 -182 -3 -265 -24z m1295 -792 c233 -11 353 -20 380 -30 41 -15 86 -29 208
-64 50 -15 84 -34 130 -72 34 -28 68 -59 74 -68 7 -10 37 -34 65 -55 29 -21
82 -61 118 -89 36 -29 106 -74 155 -100 50 -26 104 -55 120 -65 17 -10 80 -39
140 -63 61 -25 129 -55 152 -66 23 -12 47 -21 52 -21 14 0 279 -180 362 -246
92 -73 155 -146 178 -207 10 -29 36 -88 56 -132 20 -44 48 -109 61 -145 14
-35 47 -105 75 -155 44 -79 135 -294 204 -485 13 -36 44 -146 69 -244 l46
-180 0 -310 c0 -328 12 -564 35 -656 7 -30 18 -89 25 -130 6 -41 16 -94 21
-117 14 -64 11 -183 -7 -232 -8 -24 -25 -85 -38 -135 -25 -100 -50 -155 -99
-219 -18 -24 -43 -67 -56 -97 -12 -30 -36 -82 -51 -116 l-28 -61 -79 -28
c-112 -40 -345 -75 -496 -75 l-46 0 -16 53 c-26 92 -32 186 -27 447 4 252 -2
365 -32 588 -25 179 -99 291 -236 356 -59 28 -74 31 -165 31 -91 0 -106 -3
-165 -31 -83 -40 -154 -111 -193 -194 -39 -81 -46 -178 -24 -346 23 -175 30
-302 22 -408 l-7 -94 -92 -4 c-102 -4 -180 -33 -242 -88 -19 -16 -41 -30 -48
-30 -42 0 -203 -88 -309 -168 -59 -45 -151 -94 -197 -107 -14 -3 -54 -15 -90
-25 -103 -30 -161 -38 -385 -56 -172 -13 -283 -15 -610 -9 -220 4 -721 8
-1113 10 -393 2 -735 6 -760 10 -64 9 -124 26 -142 40 -8 7 -41 26 -72 44 -32
18 -93 61 -136 95 -88 72 -168 119 -233 140 -33 10 -70 39 -149 116 -102 100
-209 186 -300 244 -91 58 -111 85 -138 195 -16 61 -16 75 -4 132 9 39 17 171
21 339 7 251 10 280 30 335 13 33 43 117 67 188 24 70 50 140 58 155 7 15 17
43 21 62 4 19 22 53 40 75 36 44 78 124 89 167 3 16 25 41 55 62 83 62 148
168 157 259 6 60 31 147 86 300 36 98 55 175 78 327 4 30 13 68 20 85 6 16 16
65 21 109 10 77 13 84 82 181 40 55 85 120 101 145 45 70 134 168 205 224 35
27 102 93 149 145 54 62 103 106 136 124 28 15 84 51 125 79 48 34 100 59 150
74 42 12 126 44 186 69 61 26 137 55 170 65 33 10 83 28 110 40 148 64 230 79
505 89 111 5 197 12 215 20 17 7 48 16 70 20 61 12 707 3 1090 -16z"/>
<path d="M2588 3756 c-123 -41 -177 -113 -178 -237 0 -115 51 -186 173 -243
31 -14 59 -17 141 -14 92 3 107 6 144 31 64 42 95 98 100 179 5 83 -8 122 -64
197 -81 108 -176 134 -316 87z"/>
<path d="M4887 3660 c-127 -49 -186 -131 -187 -256 0 -93 32 -161 98 -207 l47
-32 132 0 c130 0 132 0 174 30 24 17 57 50 74 74 29 41 30 47 30 145 0 97 -2
105 -30 152 -44 70 -130 114 -223 114 -41 -1 -86 -8 -115 -20z"/>
<path d="M3255 2480 c-22 -10 -47 -25 -56 -32 -22 -18 -109 -146 -125 -185
-37 -86 1 -208 82 -264 79 -54 115 -61 297 -57 162 3 164 3 213 33 72 45 108
104 112 187 6 97 -2 127 -57 211 -40 61 -58 79 -102 101 -49 24 -62 26 -188
26 -113 0 -143 -4 -176 -20z"/>
<path d="M2888 1915 c-56 -21 -106 -63 -131 -109 -20 -36 -22 -56 -22 -176 l0
-135 34 -49 c50 -72 118 -132 191 -168 87 -43 206 -50 322 -19 43 12 89 21
103 21 13 0 42 7 64 16 38 15 41 15 62 -5 32 -30 60 -33 301 -29 242 3 251 6
293 80 11 20 38 67 59 105 35 60 40 77 44 146 3 56 0 90 -12 120 -22 59 -94
130 -163 162 -54 25 -61 26 -98 13 -44 -15 -85 -66 -85 -105 0 -44 29 -87 80
-121 61 -39 65 -68 19 -130 l-31 -43 -136 3 c-133 3 -135 3 -155 29 -10 15
-23 49 -28 75 -16 87 -87 131 -156 97 -41 -19 -64 -56 -85 -135 -10 -37 -17
-48 -33 -48 -11 0 -49 -9 -85 -20 -110 -34 -168 -22 -242 49 -35 32 -38 40
-38 90 0 50 3 57 39 90 64 59 65 136 1 182 -36 26 -70 30 -112 14z"/>
</g>
</svg>
