<?xml version="1.0" standalone="no"?>
<!DOCTYPE svg PUBLIC "-//W3C//DTD SVG 20010904//EN"
 "http://www.w3.org/TR/2001/REC-SVG-20010904/DTD/svg10.dtd">
<svg version="1.0" xmlns="http://www.w3.org/2000/svg"
 width="1536.000000pt" height="960.000000pt" viewBox="0 0 1536.000000 960.000000"
 preserveAspectRatio="xMidYMid meet">

<g transform="translate(0.000000,960.000000) scale(0.100000,-0.100000)"
fill="#574142" stroke="none">
<path d="M8221 9024 c-109 -18 -277 -75 -367 -123 -39 -21 -124 -74 -190 -117
-283 -186 -526 -499 -624 -805 -57 -180 -64 -228 -64 -439 -1 -172 2 -206 23
-290 77 -308 242 -555 498 -746 43 -32 114 -92 159 -134 235 -224 525 -340
849 -340 150 0 267 19 405 67 103 36 109 37 310 44 188 6 218 10 355 43 179
43 225 57 329 103 154 66 366 226 486 364 173 201 297 457 335 692 21 127 20
484 0 603 -43 243 -161 471 -338 653 -152 155 -351 280 -552 345 -222 72 -204
70 -616 72 -215 1 -401 7 -434 13 -84 16 -462 12 -564 -5z"/>
<path d="M3325 7879 c-330 -63 -512 -165 -771 -430 -163 -167 -254 -302 -315
-464 -18 -48 -31 -63 -97 -114 -193 -146 -347 -357 -422 -576 -50 -144 -62
-217 -67 -424 -6 -207 4 -324 39 -476 111 -482 504 -854 992 -940 199 -34 487
-15 660 45 37 12 85 20 126 20 170 0 428 76 575 168 27 18 72 31 142 43 93 15
158 32 402 106 184 55 408 190 551 334 116 116 278 360 346 521 83 196 107
372 102 719 -5 258 -5 267 -36 379 -50 184 -111 319 -220 485 -123 185 -379
394 -595 484 -233 96 -410 116 -782 85 -53 -4 -90 0 -155 16 -97 25 -387 36
-475 19z"/>
<path d="M13890 6514 c-19 -2 -66 -9 -105 -16 -39 -6 -195 -12 -355 -12 -353
-1 -437 -17 -655 -121 -198 -95 -340 -222 -514 -459 -122 -168 -178 -266 -220
-388 -56 -161 -63 -213 -68 -493 -5 -286 1 -366 47 -565 16 -69 39 -181 51
-250 41 -240 156 -523 277 -687 75 -100 401 -430 497 -501 149 -111 389 -215
569 -247 114 -19 346 -20 459 0 402 70 751 335 942 715 56 111 81 194 127 415
38 188 41 213 47 425 l6 225 31 45 c47 68 111 201 144 298 89 266 77 592 -31
854 -158 383 -504 665 -911 743 -84 16 -274 27 -338 19z"/>
<path d="M8335 5533 c-16 -2 -94 -17 -171 -33 -118 -23 -151 -26 -194 -18 -85
15 -774 4 -910 -15 -239 -33 -411 -89 -675 -218 -96 -47 -227 -100 -330 -134
-93 -31 -219 -79 -280 -107 -60 -27 -168 -73 -240 -102 -196 -80 -543 -261
-700 -366 -185 -123 -361 -297 -530 -524 -152 -205 -203 -288 -286 -466 -129
-278 -149 -378 -149 -735 0 -352 12 -481 66 -691 23 -94 52 -194 63 -222 52
-131 137 -271 230 -381 65 -75 230 -222 309 -275 131 -87 311 -161 512 -211
36 -9 103 -34 150 -54 132 -59 406 -149 504 -166 49 -8 119 -15 157 -15 38 0
113 -11 171 -25 57 -14 139 -28 183 -31 44 -4 116 -16 160 -27 71 -18 126 -21
485 -27 363 -7 415 -10 500 -29 133 -30 583 -45 1445 -45 l680 -1 115 27 c99
23 153 28 380 37 146 6 335 11 421 11 287 0 479 57 744 221 50 31 116 71 148
90 169 99 372 296 508 495 149 215 204 337 269 590 25 97 33 153 42 304 14
249 5 602 -17 700 -35 157 -116 375 -211 568 -110 223 -143 280 -269 457 -127
177 -262 312 -465 462 -91 67 -191 144 -223 170 -155 127 -195 156 -274 199
-46 25 -124 60 -173 78 -81 29 -94 38 -165 109 -97 97 -166 150 -279 215 -138
79 -331 147 -487 172 -73 12 -1149 24 -1214 13z"/>
</g>
</svg>
