<?xml version="1.0" standalone="no"?>
<!DOCTYPE svg PUBLIC "-//W3C//DTD SVG 20010904//EN"
 "http://www.w3.org/TR/2001/REC-SVG-20010904/DTD/svg10.dtd">
<svg version="1.0" xmlns="http://www.w3.org/2000/svg"
 width="671.000000pt" height="960.000000pt" viewBox="0 0 671.000000 960.000000"
 preserveAspectRatio="xMidYMid meet">

<g transform="translate(0.000000,960.000000) scale(0.100000,-0.100000)"
fill="#574142" stroke="none">
<path d="M3180 9039 c-69 -4 -165 -14 -215 -23 -96 -16 -326 -86 -387 -117
-20 -10 -71 -30 -112 -43 -41 -13 -103 -40 -138 -60 -260 -151 -337 -199 -410
-257 -117 -94 -315 -286 -368 -358 -139 -190 -257 -325 -365 -421 -72 -63
-147 -142 -198 -207 -45 -58 -111 -142 -146 -187 -82 -104 -203 -345 -226
-450 -14 -60 -16 -114 -13 -268 4 -187 5 -196 36 -287 42 -120 87 -195 167
-274 75 -74 147 -119 247 -155 65 -24 88 -26 208 -27 112 0 147 4 205 22 257
82 435 311 454 583 l6 96 60 79 c33 43 80 94 105 114 102 81 294 293 429 474
76 101 183 207 236 234 17 9 55 33 86 54 59 42 279 133 369 154 30 6 138 15
240 19 l185 7 117 -45 c144 -54 220 -74 335 -85 63 -6 114 -19 178 -45 50 -20
137 -48 195 -62 58 -14 116 -33 130 -42 57 -36 275 -270 398 -426 63 -80 104
-214 122 -396 5 -52 14 -111 20 -130 6 -21 10 -170 10 -368 0 -306 -2 -341
-22 -428 l-21 -94 -496 3 -496 3 -100 36 c-55 20 -154 48 -220 63 -110 24
-123 29 -155 63 -208 220 -525 274 -793 135 -105 -54 -221 -173 -275 -280 -72
-146 -73 -161 -68 -728 3 -275 9 -846 13 -1270 l8 -770 31 -81 c76 -197 212
-332 406 -402 66 -24 87 -26 213 -27 117 0 151 4 210 22 98 31 189 87 265 163
75 76 121 149 158 252 l26 73 -3 734 -3 734 39 -7 c149 -25 226 -28 895 -23
797 5 764 1 967 91 121 53 199 107 306 212 63 63 98 109 166 224 156 262 172
308 230 670 23 139 24 167 24 655 0 372 -4 530 -13 585 -46 268 -88 469 -118
563 -81 258 -155 387 -346 604 -32 35 -92 108 -135 161 -42 53 -158 178 -258
277 l-180 181 -135 71 c-74 39 -157 78 -185 86 -27 8 -88 29 -135 46 -47 17
-121 41 -164 51 -44 11 -118 38 -165 60 -102 47 -193 70 -277 70 -47 0 -77 7
-126 30 -76 36 -185 64 -329 85 -115 16 -465 19 -699 4z"/>
<path d="M3191 1699 c-161 -31 -291 -98 -396 -204 -92 -91 -134 -164 -186
-320 -32 -96 -34 -106 -33 -255 0 -145 2 -160 28 -230 89 -236 191 -363 361
-445 103 -50 179 -65 335 -65 163 0 233 15 355 75 192 94 307 226 386 445 22
61 24 79 24 275 0 178 -3 218 -18 265 -79 234 -246 392 -475 451 -81 21 -294
25 -381 8z"/>
</g>
</svg>
